<?xml version="1.0" encoding="UTF-8" standalone="no"?>
<!DOCTYPE svg PUBLIC "-//W3C//DTD SVG 1.1//EN" "http://www.w3.org/Graphics/SVG/1.1/DTD/svg11.dtd">
<svg width="100%" height="100%" viewBox="0 0 4167 4167" version="1.1" xmlns="http://www.w3.org/2000/svg" xmlns:xlink="http://www.w3.org/1999/xlink" xml:space="preserve" xmlns:serif="http://www.serif.com/" style="fill-rule:evenodd;clip-rule:evenodd;stroke-linecap:round;stroke-linejoin:round;stroke-miterlimit:1.5;">
    <g transform="matrix(4.16667,0,0,4.16667,0,0)">
        <g transform="matrix(1.1,0,0,1.1,-6,-29.1)">
            <circle cx="460" cy="481" r="450"/>
            <clipPath id="_clip1">
                <circle cx="460" cy="481" r="450"/>
            </clipPath>
            <g clip-path="url(#_clip1)">
                <g transform="matrix(1.05751,0,0,1.05751,-68.757,-47.757)">
                    <rect x="175" y="262" width="663" height="479" style="fill:rgb(235,235,235);"/>
                    <g>
                        <path d="M500,10C229.4,10 10,229.3 10,500C10,770.6 229.4,990 500,990C770.6,990 990,770.5 990,500C990,229.3 770.7,10 500,10ZM219.3,310.3L231.4,310.3C411.1,310.3 590.8,310.4 770.4,310.2C778.5,310.2 780.9,312.2 780.9,320.6C780.8,440.4 780.8,560.3 780.9,680.1C780.9,687.8 778.6,689.8 771.3,689.8C590.5,689.5 409.6,689.5 228.8,689.7C222.5,689.7 219.2,689 219.2,681.1C219.5,561.6 219.4,442.1 219.3,322.5L219.3,310.3ZM263.6,335C267.1,338.6 268.5,340.3 270.4,342C330.7,397.5 390.9,452.9 451.4,508.4C461,517.3 470.9,526.1 481.7,533.8C493.9,542.4 507.5,542.5 519.4,533.1C532,523.4 543.8,512.8 555.5,502C613.1,449.4 670.5,396.6 727.9,343.7C730.4,341.5 732.4,338.8 735.6,334.9C577.7,335 421.9,335 263.6,335ZM262.9,661.9C263.9,663.1 264.7,664.1 265.7,665.2L734.7,665.2C735.4,664.3 735.9,663.4 736.3,662.4C733.1,660 729.5,657.7 726.6,654.9C678.3,610.7 629.9,566.6 582,522.1C575.6,516.3 572.2,517.1 566.5,522.4C554.2,533.6 541.7,544.3 528.5,554.3C510.1,568.2 490.6,568.6 471.9,554.6C458.4,544.3 445.5,533.1 432.7,521.7C427.3,516.7 424,516.8 418.6,521.8C370.1,566.7 321.3,611.2 272.6,655.9C269.9,658.3 266.2,660 262.9,661.9ZM409,500C354.6,450.2 301.2,401 246.3,350.8L246.3,649.5C301.4,598.8 354.7,549.9 409,500ZM754.3,353.9C753.4,353.4 752.6,353 751.8,352.5C698.5,401.5 645.4,450.5 591.3,500C645.8,550.1 699.1,599 754.2,649.6C754.3,549.2 754.3,451.6 754.3,353.9Z" style="fill-rule:nonzero;"/>
                    </g>
                </g>
            </g>
            <circle cx="460" cy="481" r="450" style="fill:none;stroke:black;stroke-width:0.91px;"/>
        </g>
    </g>
</svg>
