<?xml version="1.0" encoding="UTF-8" standalone="no"?><!DOCTYPE svg PUBLIC "-//W3C//DTD SVG 1.1//EN" "http://www.w3.org/Graphics/SVG/1.1/DTD/svg11.dtd"><svg width="100%" height="100%" viewBox="0 0 202 202" version="1.1" xmlns="http://www.w3.org/2000/svg" xmlns:xlink="http://www.w3.org/1999/xlink" xml:space="preserve" xmlns:serif="http://www.serif.com/" style="fill-rule:evenodd;clip-rule:evenodd;stroke-linejoin:round;stroke-miterlimit:2;"><g><path d="M201.621,100.808c-0,55.675 -45.134,100.809 -100.809,100.809c-55.679,-0 -100.812,-45.134 -100.812,-100.809c0,-55.679 45.133,-100.808 100.812,-100.808c55.675,0 100.809,45.129 100.809,100.808Z" style="fill:#030404;fill-rule:nonzero;"/><path d="M132.104,62.671c-3.829,-0 -6.929,3.1 -6.929,6.929c-0,3.825 3.1,6.929 6.929,6.929c3.825,0 6.929,-3.104 6.929,-6.929c0,-3.829 -3.104,-6.929 -6.929,-6.929Z" style="fill:#fff;fill-rule:nonzero;"/><path d="M101.296,119.312c-10.279,0 -18.646,-8.362 -18.646,-18.645c-0,-10.28 8.367,-18.646 18.646,-18.646c10.283,-0 18.646,8.366 18.646,18.646c-0,10.283 -8.363,18.645 -18.646,18.645Zm-0,-47.754c-16.05,0 -29.108,13.059 -29.108,29.109c-0,16.05 13.058,29.108 29.108,29.108c16.05,-0 29.108,-13.058 29.108,-29.108c0,-16.05 -13.058,-29.109 -29.108,-29.109Z" style="fill:#fff;fill-rule:nonzero;"/><path d="M77.217,52.687c-13.45,0 -24.388,10.938 -24.388,24.384l0,47.196c0,13.441 10.938,24.379 24.388,24.379l47.187,-0c13.446,-0 24.388,-10.938 24.388,-24.379l-0,-47.196c-0,-13.446 -10.942,-24.384 -24.388,-24.384l-47.187,0Zm47.187,107.08l-47.187,-0c-19.579,-0 -35.505,-15.925 -35.505,-35.5l0,-47.196c0,-19.579 15.926,-35.504 35.505,-35.504l47.187,-0c19.579,-0 35.509,15.925 35.509,35.504l-0,47.196c-0,19.575 -15.93,35.5 -35.509,35.5Z" style="fill:#fff;fill-rule:nonzero;"/></g></svg>