<?xml version="1.0" encoding="UTF-8" standalone="no"?><!DOCTYPE svg PUBLIC "-//W3C//DTD SVG 1.1//EN" "http://www.w3.org/Graphics/SVG/1.1/DTD/svg11.dtd"><svg width="100%" height="100%" viewBox="0 0 202 202" version="1.1" xmlns="http://www.w3.org/2000/svg" xmlns:xlink="http://www.w3.org/1999/xlink" xml:space="preserve" xmlns:serif="http://www.serif.com/" style="fill-rule:evenodd;clip-rule:evenodd;stroke-linejoin:round;stroke-miterlimit:2;"><g><path d="M201.621,100.808c-0,55.675 -45.138,100.809 -100.809,100.809c-55.679,-0 -100.812,-45.134 -100.812,-100.809c0,-55.679 45.133,-100.808 100.812,-100.808c55.671,0 100.809,45.129 100.809,100.808Z" style="fill:#030404;fill-rule:nonzero;"/><path d="M153.162,89.192c-1.033,0.1 -2.066,0.154 -3.104,0.158c-11.362,-0 -21.962,-5.725 -28.187,-15.238l-0,51.875c-0,21.18 -17.163,38.342 -38.338,38.342c-21.175,0 -38.337,-17.162 -38.337,-38.342c-0,-21.17 17.162,-38.341 38.337,-38.341c0.8,-0 1.584,0.075 2.371,0.125l0,18.891c-0.787,-0.095 -1.562,-0.237 -2.371,-0.237c-10.808,-0 -19.566,8.762 -19.566,19.571c-0,10.808 8.758,19.562 19.566,19.562c10.809,0 20.354,-8.512 20.354,-19.325l0.188,-88.096l18.075,0c1.704,16.209 14.775,28.867 31.029,30.059l0,20.996" style="fill:#fff;fill-rule:nonzero;"/></g></svg>