<?xml version="1.0" encoding="UTF-8" standalone="no"?><!DOCTYPE svg PUBLIC "-//W3C//DTD SVG 1.1//EN" "http://www.w3.org/Graphics/SVG/1.1/DTD/svg11.dtd"><svg width="100%" height="100%" viewBox="0 0 202 202" version="1.1" xmlns="http://www.w3.org/2000/svg" xmlns:xlink="http://www.w3.org/1999/xlink" xml:space="preserve" xmlns:serif="http://www.serif.com/" style="fill-rule:evenodd;clip-rule:evenodd;stroke-linejoin:round;stroke-miterlimit:2;"><g id="whatsapp_icon"><path d="M201.621,100.813c-0,55.675 -45.138,100.808 -100.809,100.808c-55.679,-0 -100.812,-45.133 -100.812,-100.808c0,-55.675 45.133,-100.813 100.812,-100.813c55.671,0 100.809,45.138 100.809,100.813Z" style="fill:#030404;fill-rule:nonzero;"/><path d="M79.433,137.663l1.988,1.183c7.287,4.342 15.575,6.637 23.971,6.637c25.891,0 46.958,-21.062 46.958,-46.958c-0,-25.896 -21.067,-46.958 -46.958,-46.958c-25.892,-0 -46.959,21.062 -46.959,46.958c0,8.55 2.375,16.967 6.867,24.346l1.217,2l-4.692,17.512l17.608,-4.72Zm-33.087,20.195l8.404,-31.358c-4.758,-8.587 -7.263,-18.208 -7.263,-27.975c0,-31.929 25.975,-57.904 57.905,-57.904c31.929,-0 57.9,25.975 57.9,57.904c-0,31.929 -25.971,57.904 -57.9,57.904c-9.588,0 -19.05,-2.416 -27.525,-7.012l-31.521,8.441Z" style="fill:#fff;fill-rule:nonzero;"/><path d="M126.933,106.579c-2.383,-1.425 -5.487,-3.016 -8.296,-1.871c-2.149,0.884 -3.529,4.255 -4.92,5.975c-0.721,0.888 -1.575,1.021 -2.671,0.58c-8.088,-3.221 -14.284,-8.621 -18.746,-16.055c-0.754,-1.158 -0.621,-2.066 0.292,-3.141c1.345,-1.584 3.037,-3.388 3.404,-5.525c0.362,-2.138 -0.638,-4.642 -1.521,-6.546c-1.133,-2.433 -2.396,-5.904 -4.833,-7.279c-2.242,-1.267 -5.192,-0.559 -7.188,1.066c-3.446,2.809 -5.108,7.205 -5.058,11.563c0.012,1.237 0.166,2.475 0.454,3.667c0.696,2.875 2.025,5.558 3.521,8.112c1.125,1.925 2.354,3.792 3.671,5.588c4.329,5.875 9.708,10.979 15.937,14.795c3.113,1.909 6.467,3.58 9.938,4.73c3.896,1.283 7.366,2.62 11.57,1.825c4.4,-0.838 8.742,-3.559 10.488,-7.805c0.517,-1.254 0.775,-2.654 0.487,-3.983c-0.595,-2.742 -4.312,-4.371 -6.529,-5.696Z" style="fill:#fff;"/></g></svg>