<?xml version="1.0" encoding="UTF-8" standalone="no"?><!DOCTYPE svg PUBLIC "-//W3C//DTD SVG 1.1//EN" "http://www.w3.org/Graphics/SVG/1.1/DTD/svg11.dtd"><svg width="100%" height="100%" viewBox="0 0 201 201" version="1.1" xmlns="http://www.w3.org/2000/svg" xmlns:xlink="http://www.w3.org/1999/xlink" xml:space="preserve" xmlns:serif="http://www.serif.com/" style="fill-rule:evenodd;clip-rule:evenodd;stroke-linejoin:round;stroke-miterlimit:2;"><g><path d="M200.779,100.383c0,55.442 -44.95,100.384 -100.387,100.384c-55.442,-0 -100.392,-44.942 -100.392,-100.384c0,-55.441 44.95,-100.383 100.392,-100.383c55.437,0 100.387,44.942 100.387,100.383Z" style="fill:#030404;fill-rule:nonzero;"/><path d="M118.788,102.5l-27.23,13.475c-1.071,0.579 -4.695,-0.196 -4.695,-1.412l-0,-27.655c-0,-1.229 3.658,-2 4.725,-1.391l26.062,14.183c1.096,0.621 2.242,2.204 1.138,2.8Zm35.712,-16.246c0,-13.112 -10.633,-23.746 -23.746,-23.746l-60.729,0c-13.113,0 -23.746,10.634 -23.746,23.746l0,28.259c0,13.116 10.633,23.745 23.746,23.745l60.729,0c13.113,0 23.746,-10.629 23.746,-23.745l0,-28.259Z" style="fill:#fff;fill-rule:nonzero;"/></g></svg>